<svg version="1.0" xmlns="http://www.w3.org/2000/svg"
 width="800" height="800" viewBox="0 0 2048.000000 2080.000000"
 preserveAspectRatio="xMidYMid meet">

<g transform="translate(0.000000,2080.000000) scale(0.100000,-0.100000)"
fill="#000000" stroke="none">
<path d="M12235 17125 c-5 -2 -230 -11 -500 -20 -269 -8 -548 -20 -620 -25
-71 -5 -238 -15 -370 -20 -132 -6 -296 -15 -365 -20 -69 -6 -278 -21 -465 -35
-386 -28 -564 -42 -680 -56 -45 -5 -189 -18 -320 -29 -392 -33 -452 -39 -635
-60 -96 -11 -216 -25 -266 -30 -179 -19 -597 -72 -1249 -160 -44 -6 -98 -15
-120 -20 -22 -6 -157 -28 -300 -50 -282 -43 -549 -90 -855 -151 -107 -21 -238
-45 -290 -54 -52 -9 -178 -33 -280 -55 -102 -21 -223 -46 -270 -54 -163 -30
-396 -76 -490 -97 -429 -93 -748 -154 -888 -169 -107 -11 -150 -21 -245 -57
-200 -75 -350 -253 -381 -453 -6 -41 -10 -136 -10 -210 3 -273 63 -465 217
-689 l58 -86 -33 -9 c-111 -30 -229 -67 -268 -84 -73 -31 -171 -134 -216 -226
-39 -79 -39 -81 -38 -195 0 -106 4 -128 42 -257 69 -236 126 -386 174 -463 16
-25 28 -55 28 -68 0 -13 5 -23 10 -23 6 0 10 -16 10 -35 0 -19 -4 -35 -9 -35
-16 0 -110 -104 -148 -163 -33 -53 -63 -193 -63 -302 0 -97 28 -211 69 -281
12 -20 33 -64 47 -98 14 -33 46 -103 72 -154 l46 -93 -12 -57 c-11 -53 -18
-63 -91 -132 -89 -84 -104 -117 -121 -265 -17 -141 -13 -202 20 -280 5 -11 21
-54 36 -95 15 -41 31 -79 35 -85 3 -5 12 -26 18 -47 22 -67 110 -259 141 -309
38 -59 88 -100 167 -137 56 -26 64 -27 220 -27 155 1 162 0 167 -20 10 -35 6
-309 -4 -347 -13 -45 -60 -114 -159 -235 -42 -50 -91 -120 -108 -155 -46 -91
-83 -245 -84 -348 -1 -101 1 -108 57 -277 24 -72 44 -144 44 -161 0 -41 -15
-83 -69 -191 -42 -85 -46 -100 -50 -179 -8 -196 68 -345 219 -427 l55 -30 189
2 c172 2 522 37 606 60 l24 6 -26 -44 c-29 -51 -31 -52 -282 -155 -99 -42
-260 -114 -356 -161 -204 -100 -264 -150 -318 -265 -46 -97 -55 -146 -50 -251
6 -94 35 -187 88 -282 27 -49 137 -194 185 -246 9 -9 76 -137 150 -285 75
-148 140 -276 145 -284 72 -112 97 -145 150 -203 50 -54 80 -76 151 -111 85
-42 87 -43 64 -56 -13 -7 -63 -53 -110 -101 -69 -71 -93 -105 -124 -171 -21
-46 -42 -100 -45 -121 -13 -74 -6 -183 20 -312 18 -93 26 -161 26 -240 0 -67
5 -123 13 -145 8 -19 21 -64 30 -100 19 -80 123 -289 176 -356 21 -27 57 -76
80 -109 l40 -60 -4 -90 c-2 -49 -16 -148 -32 -218 -27 -120 -28 -132 -17 -209
13 -87 57 -190 115 -265 339 -442 406 -502 572 -511 88 -5 168 9 310 54 120
38 569 148 745 183 364 71 471 90 580 105 122 17 521 67 730 92 69 8 168 21
220 29 110 17 467 64 755 100 110 14 268 34 350 45 483 63 695 92 815 110 74
11 214 29 310 40 96 12 231 29 300 40 69 11 233 33 365 50 132 17 265 35 295
40 30 6 102 16 160 24 58 8 202 28 320 44 118 17 278 38 355 47 77 9 208 27
290 40 83 13 245 38 360 55 116 17 284 44 375 61 294 54 321 58 600 104 302
49 394 61 735 100 242 28 248 29 690 125 643 139 939 195 1170 221 143 15 309
51 465 99 74 22 198 61 275 84 77 24 217 67 310 95 270 82 522 170 625 218 52
25 115 51 140 59 154 46 226 174 184 325 -37 136 -173 361 -275 454 -56 51
-135 103 -222 146 -66 33 -69 36 -103 109 -51 106 -93 168 -131 191 -19 12
-32 26 -30 32 6 18 247 104 358 127 157 34 280 69 314 90 20 12 44 44 65 85
28 55 33 76 32 129 -1 119 -54 249 -162 400 -33 46 -82 102 -108 125 -162 143
-185 168 -243 262 -134 218 -193 242 -587 238 -117 -1 -215 0 -218 3 -3 3 39
22 93 43 54 21 132 52 173 69 84 36 200 74 337 111 122 33 174 58 239 118 70
64 96 114 102 199 9 125 -47 270 -160 415 -134 173 -189 250 -204 289 -16 42
-16 46 4 100 12 30 36 103 53 162 55 192 51 185 209 291 80 53 157 113 180
139 59 69 98 155 119 262 51 256 71 373 76 455 4 50 13 144 22 210 18 138 13
392 -10 486 -36 148 -145 247 -277 250 -87 2 -112 11 -137 48 -18 26 -23 48
-23 97 0 68 -7 50 132 314 56 106 72 171 65 264 -6 88 -34 159 -117 296 -154
257 -290 364 -498 391 -37 4 -239 8 -448 9 -372 0 -382 1 -408 21 -37 29 -62
83 -70 150 l-7 56 198 6 c109 3 317 15 462 26 231 18 271 24 316 45 61 28 133
89 147 126 26 65 37 146 27 215 -19 148 -45 211 -145 360 -44 64 -94 142 -113
173 -19 31 -83 105 -143 164 -96 94 -108 110 -99 127 17 31 13 113 -9 176 -24
71 -73 160 -157 285 -53 81 -73 120 -60 120 1 0 56 9 122 21 66 11 172 29 235
39 205 34 286 72 340 156 38 60 44 109 31 225 -10 79 -19 110 -60 194 -27 55
-87 156 -133 225 -112 167 -128 190 -159 225 -35 39 -81 133 -109 220 -20 65
-116 260 -144 295 -7 8 -25 40 -40 70 -54 106 -131 196 -199 231 -56 29 -230
65 -427 89 -96 11 -211 25 -255 30 -150 18 -260 29 -380 39 -66 6 -174 15
-240 21 -344 30 -719 42 -1495 46 -443 2 -809 2 -815 -1z"/>
</g>
</svg>
